<?xml version="1.0" encoding="utf-8"?>
<!-- Generator: Adobe Illustrator 23.0.1, SVG Export Plug-In . SVG Version: 6.00 Build 0)  -->
<svg version="1.1"
	 id="Layer_1" xmlns:cc="http://creativecommons.org/ns#" xmlns:dc="http://purl.org/dc/elements/1.1/" xmlns:inkscape="http://www.inkscape.org/namespaces/inkscape" xmlns:rdf="http://www.w3.org/1999/02/22-rdf-syntax-ns#" xmlns:sodipodi="http://sodipodi.sourceforge.net/DTD/sodipodi-0.dtd" xmlns:svg="http://www.w3.org/2000/svg"
	 xmlns="http://www.w3.org/2000/svg" xmlns:xlink="http://www.w3.org/1999/xlink" x="0px" y="0px" viewBox="0 0 4500 4500"
	 style="enable-background:new 0 0 4500 4500;" xml:space="preserve">
<style type="text/css">
	.st0{fill:none;stroke:#FF0000;stroke-width:6.2504;stroke-linecap:round;stroke-linejoin:round;}
	.st1{fill:none;stroke:#FF0000;stroke-width:6.2469;stroke-linecap:round;stroke-linejoin:round;}
</style>
<g>
	
		<sodipodi:namedview  bordercolor="#666666" borderopacity="1.0" gridtolerance="10000" guidetolerance="10" id="base" inkscape:current-layer="layer1" inkscape:cx="469.69857" inkscape:cy="658.67868" inkscape:document-units="px" inkscape:pageopacity="0.0" inkscape:pageshadow="2" inkscape:window-height="701" inkscape:window-width="1024" inkscape:window-x="0" inkscape:window-y="0" inkscape:zoom="0.35" objecttolerance="10" pagecolor="#ffffff" showgrid="false">
		</sodipodi:namedview>
	<g id="_2670545807120">
		<line id="path2435" class="st0" x1="1675" y1="2250" x2="723" y2="2250"/>
		<line id="path2455" class="st0" x1="2202" y1="2250" x2="2202" y2="2298"/>
		<polyline id="path2457" class="st0" points="2221,2298 2250,2250 2279,2298 		"/>
		<polyline id="path2479" class="st0" points="2237,2453 2250,2411 2263,2453 		"/>
		<line id="path2485" class="st0" x1="2250" y1="2863" x2="2250" y2="3820"/>
		<line id="path2487" class="st0" x1="1996" y1="3203" x2="728" y2="3203"/>
		<line id="path2489" class="st1" x1="726" y1="3134" x2="774" y2="3132"/>
		<line id="path2491" class="st0" x1="729" y1="3108" x2="729" y2="3020"/>
		<line id="path2493" class="st0" x1="842" y1="3126" x2="930" y2="3121"/>
		<line id="path2495" class="st0" x1="889" y1="3097" x2="889" y2="3056"/>
		<line id="path2497" sodipodi:nodetypes="cc" class="st0" x1="1006" y1="3112" x2="1097" y2="3103">
		</line>
		<line id="path2499" class="st0" x1="1047" y1="3085" x2="1047" y2="2999"/>
		<line id="path2501" class="st0" x1="1162" y1="3096" x2="1254" y2="3085"/>
		<line id="path2503" class="st0" x1="1321" y1="3077" x2="1411" y2="3061"/>
		<line id="path2505" class="st0" x1="1479" y1="3051" x2="1569" y2="3028"/>
		<line id="path2507" class="st0" x1="1208" y1="3067" x2="1208" y2="3026"/>
		<line id="path2509" class="st0" x1="1367" y1="3046" x2="1367" y2="2958"/>
		<line id="path2511" class="st0" x1="1523" y1="3015" x2="1523" y2="2971"/>
		<line id="path2513" class="st0" x1="1637" y1="3016" x2="1727" y2="2980"/>
		<line id="path2515" class="st0" x1="1680" y1="2974" x2="1680" y2="2886"/>
		<line id="path2517" class="st0" x1="1794" y1="2952" x2="1882" y2="2907"/>
		<line id="path2519" class="st0" x1="1838" y1="2907" x2="1838" y2="2865"/>
		<line id="path2521" class="st0" x1="1950" y1="2846" x2="1997" y2="2799"/>
		<line id="path2523" class="st0" x1="1995" y1="2775" x2="1995" y2="2687"/>
		<g>
			<line id="path2525" class="st0" x1="1734" y1="2397" x2="1734" y2="2495"/>
			<path id="path2529" sodipodi:nodetypes="ccccccccc" class="st0" d="M1771,2413v61c2,9,9,15,19,20l18-1c9-3,16-9,19-20v-60
				c-2-9-9-15-18-18h-22C1779,2399,1773,2405,1771,2413z"/>
		</g>
		<g>
			<line id="path2531" class="st0" x1="2692" y1="2390" x2="2693" y2="2489"/>
			<path id="path2533" sodipodi:nodetypes="ccccccccc" class="st0" d="M2729,2407v60c3,9,9,16,20,20l17-1c10-3,17-9,20-19v-60
				c-3-9-9-15-18-18h-22C2737,2392,2732,2398,2729,2407z"/>
		</g>
		<path id="path2535" sodipodi:nodetypes="cccccc" class="st0" d="M2020,2652h-53c-2-20,9-31,26-37c15-2,23-13,25-31
			c0-13-4-25-27-29c-11,2-21,6-24,19"/>
		<line id="path2537" class="st0" x1="1708" y1="2860" x2="1708" y2="2802"/>
		<polyline id="path2539" class="st0" points="1708,2830 1652,2830 1689,2756 		"/>
		<path id="path2541" sodipodi:nodetypes="ccccc" class="st0" d="M1399,2845c-1-25-56-28-57,1l-2,58c1,24,56,26,56-4
			c0-14,3-33-35-32"/>
		<path id="path2543" sodipodi:nodetypes="ccccc" class="st0" d="M1048,2864c29,1,29,45,0,45c37,1,36,53,0,53c-40,0-41-53,0-53
			C1016,2909,1016,2864,1048,2864z"/>
		<line id="path2545" class="st0" x1="680" y1="2888" x2="681" y2="2987"/>
		<path id="path2547" sodipodi:nodetypes="ccccccccc" class="st0" d="M717,2905v60c2,9,9,16,20,20l17-1c9-3,17-9,20-19v-60
			c-3-10-9-15-18-19h-22C725,2890,720,2896,717,2905z"/>
		<line id="path2525_0" class="st1" x1="1941" y1="3256" x2="1942" y2="3355"/>
		<line class="st1" x1="1982" y1="3340" x2="1971" y2="3363"/>
		<path class="st1" d="M1996,3256h43 M2039,3256l-30,99"/>
		<line id="path2455_1" class="st0" x1="2154" y1="2250" x2="2154" y2="2298"/>
		<line id="path2455_2" class="st0" x1="2106" y1="2250" x2="2106" y2="2298"/>
		<line id="path2455_3" class="st0" x1="2058" y1="2250" x2="2058" y2="2298"/>
		<line id="path2455_4" class="st0" x1="2010" y1="2250" x2="2010" y2="2346"/>
		<line id="path2455_5" class="st0" x1="1963" y1="2250" x2="1963" y2="2298"/>
		<line id="path2455_6" class="st0" x1="1915" y1="2250" x2="1915" y2="2298"/>
		<line id="path2455_7" class="st0" x1="1867" y1="2250" x2="1867" y2="2298"/>
		<line id="path2455_8" class="st0" x1="1819" y1="2250" x2="1819" y2="2298"/>
		<line id="path2455_9" class="st0" x1="1771" y1="2250" x2="1771" y2="2346"/>
		<line id="path2455_10" class="st0" x1="2298" y1="2250" x2="2298" y2="2298"/>
		<line id="path2455_11" class="st0" x1="2346" y1="2250" x2="2346" y2="2298"/>
		<line id="path2455_12" class="st0" x1="2394" y1="2250" x2="2394" y2="2298"/>
		<line id="path2455_13" class="st0" x1="2442" y1="2250" x2="2442" y2="2298"/>
		<line id="path2455_14" class="st0" x1="2490" y1="2250" x2="2490" y2="2346"/>
		<line id="path2455_15" class="st0" x1="2537" y1="2250" x2="2537" y2="2298"/>
		<line id="path2455_16" class="st0" x1="2585" y1="2250" x2="2585" y2="2298"/>
		<line id="path2455_17" class="st0" x1="2633" y1="2250" x2="2633" y2="2298"/>
		<line id="path2455_18" class="st0" x1="2681" y1="2250" x2="2681" y2="2298"/>
		<line id="path2455_19" class="st0" x1="2729" y1="2250" x2="2729" y2="2346"/>
		<polyline id="path2479_20" class="st0" points="2237,2638 2250,2596 2263,2638 		"/>
		<polyline id="path2479_21" class="st0" points="2237,2840 2250,2798 2263,2840 		"/>
		<line id="path2435_22" class="st0" x1="2825" y1="2250" x2="3777" y2="2250"/>
	</g>
</g>
</svg>
