<!-- Generator: Adobe Illustrator 23.0.1, SVG Export Plug-In . SVG Version: 6.00 Build 0)  -->
<svg version="1.1" id="Layer_1" xmlns:cc="http://creativecommons.org/ns#" xmlns:dc="http://purl.org/dc/elements/1.1/" xmlns:inkscape="http://www.inkscape.org/namespaces/inkscape" xmlns:rdf="http://www.w3.org/1999/02/22-rdf-syntax-ns#" xmlns:sodipodi="http://sodipodi.sourceforge.net/DTD/sodipodi-0.dtd" xmlns:svg="http://www.w3.org/2000/svg" xmlns="http://www.w3.org/2000/svg" xmlns:xlink="http://www.w3.org/1999/xlink" x="0px" y="0px" viewBox="0 0 4500 4500" style="" xml:space="preserve">
<style type="text/css">
	.st0{fill:none;stroke:#FF0000;stroke-width:6.2504;stroke-linecap:round;stroke-linejoin:round;}
	.st1{fill:none;stroke:#FF0000;stroke-width:6.2469;stroke-linecap:round;stroke-linejoin:round;}
</style>
<g>

		<sodipodi:namedview bordercolor="#666666" borderopacity="1.0" gridtolerance="10000" guidetolerance="10" id="base" inkscape:current-layer="layer1" inkscape:cx="469.69857" inkscape:cy="658.67868" inkscape:document-units="px" inkscape:pageopacity="0.0" inkscape:pageshadow="2" inkscape:window-height="701" inkscape:window-width="1024" inkscape:window-x="0" inkscape:window-y="0" inkscape:zoom="0.35" objecttolerance="10" pagecolor="#ffffff" showgrid="false">
		</sodipodi:namedview>
	<g id="_2670545807120">
		<path id="path2435" class="st0 QZLtImgx_0" d="M1675,2250L723,2250"></path>
		<path id="path2455" class="st0 QZLtImgx_1" d="M2202,2250L2202,2298"></path>
		<path id="path2457" class="st0 QZLtImgx_2" d="M2221,2298L2250,2250L2279,2298"></path>
		<path id="path2479" class="st0 QZLtImgx_3" d="M2237,2453L2250,2411L2263,2453"></path>
		<path id="path2485" class="st0 QZLtImgx_4" d="M2250,2863L2250,3820"></path>
		<path id="path2487" class="st0 QZLtImgx_5" d="M1996,3203L728,3203"></path>
		<path id="path2489" class="st1 QZLtImgx_6" d="M726,3134L774,3132"></path>
		<path id="path2491" class="st0 QZLtImgx_7" d="M729,3108L729,3020"></path>
		<path id="path2493" class="st0 QZLtImgx_8" d="M842,3126L930,3121"></path>
		<path id="path2495" class="st0 QZLtImgx_9" d="M889,3097L889,3056"></path>
		<path id="path2497" sodipodi:nodetypes="cc" class="st0 QZLtImgx_10" d="M1006,3112L1097,3103"></path>
		<path id="path2499" class="st0 QZLtImgx_11" d="M1047,3085L1047,2999"></path>
		<path id="path2501" class="st0 QZLtImgx_12" d="M1162,3096L1254,3085"></path>
		<path id="path2503" class="st0 QZLtImgx_13" d="M1321,3077L1411,3061"></path>
		<path id="path2505" class="st0 QZLtImgx_14" d="M1479,3051L1569,3028"></path>
		<path id="path2507" class="st0 QZLtImgx_15" d="M1208,3067L1208,3026"></path>
		<path id="path2509" class="st0 QZLtImgx_16" d="M1367,3046L1367,2958"></path>
		<path id="path2511" class="st0 QZLtImgx_17" d="M1523,3015L1523,2971"></path>
		<path id="path2513" class="st0 QZLtImgx_18" d="M1637,3016L1727,2980"></path>
		<path id="path2515" class="st0 QZLtImgx_19" d="M1680,2974L1680,2886"></path>
		<path id="path2517" class="st0 QZLtImgx_20" d="M1794,2952L1882,2907"></path>
		<path id="path2519" class="st0 QZLtImgx_21" d="M1838,2907L1838,2865"></path>
		<path id="path2521" class="st0 QZLtImgx_22" d="M1950,2846L1997,2799"></path>
		<path id="path2523" class="st0 QZLtImgx_23" d="M1995,2775L1995,2687"></path>
		<g>
			<path id="path2525" class="st0 QZLtImgx_24" d="M1734,2397L1734,2495"></path>
			<path id="path2529" sodipodi:nodetypes="ccccccccc" class="st0 QZLtImgx_25" d="M1771,2413v61c2,9,9,15,19,20l18-1c9-3,16-9,19-20v-60
				c-2-9-9-15-18-18h-22C1779,2399,1773,2405,1771,2413z"></path>
		</g>
		<g>
			<path id="path2531" class="st0 QZLtImgx_26" d="M2692,2390L2693,2489"></path>
			<path id="path2533" sodipodi:nodetypes="ccccccccc" class="st0 QZLtImgx_27" d="M2729,2407v60c3,9,9,16,20,20l17-1c10-3,17-9,20-19v-60
				c-3-9-9-15-18-18h-22C2737,2392,2732,2398,2729,2407z"></path>
		</g>
		<path id="path2535" sodipodi:nodetypes="cccccc" class="st0 QZLtImgx_28" d="M2020,2652h-53c-2-20,9-31,26-37c15-2,23-13,25-31
			c0-13-4-25-27-29c-11,2-21,6-24,19"></path>
		<path id="path2537" class="st0 QZLtImgx_29" d="M1708,2860L1708,2802"></path>
		<path id="path2539" class="st0 QZLtImgx_30" d="M1708,2830L1652,2830L1689,2756"></path>
		<path id="path2541" sodipodi:nodetypes="ccccc" class="st0 QZLtImgx_31" d="M1399,2845c-1-25-56-28-57,1l-2,58c1,24,56,26,56-4
			c0-14,3-33-35-32"></path>
		<path id="path2543" sodipodi:nodetypes="ccccc" class="st0 QZLtImgx_32" d="M1048,2864c29,1,29,45,0,45c37,1,36,53,0,53c-40,0-41-53,0-53
			C1016,2909,1016,2864,1048,2864z"></path>
		<path id="path2545" class="st0 QZLtImgx_33" d="M680,2888L681,2987"></path>
		<path id="path2547" sodipodi:nodetypes="ccccccccc" class="st0 QZLtImgx_34" d="M717,2905v60c2,9,9,16,20,20l17-1c9-3,17-9,20-19v-60
			c-3-10-9-15-18-19h-22C725,2890,720,2896,717,2905z"></path>
		<path id="path2525_0" class="st1 QZLtImgx_35" d="M1941,3256L1942,3355"></path>
		<path class="st1 QZLtImgx_36" d="M1982,3340L1971,3363"></path>
		<path class="st1 QZLtImgx_37" d="M1996,3256h43 M2039,3256l-30,99"></path>
		<path id="path2455_1" class="st0 QZLtImgx_38" d="M2154,2250L2154,2298"></path>
		<path id="path2455_2" class="st0 QZLtImgx_39" d="M2106,2250L2106,2298"></path>
		<path id="path2455_3" class="st0 QZLtImgx_40" d="M2058,2250L2058,2298"></path>
		<path id="path2455_4" class="st0 QZLtImgx_41" d="M2010,2250L2010,2346"></path>
		<path id="path2455_5" class="st0 QZLtImgx_42" d="M1963,2250L1963,2298"></path>
		<path id="path2455_6" class="st0 QZLtImgx_43" d="M1915,2250L1915,2298"></path>
		<path id="path2455_7" class="st0 QZLtImgx_44" d="M1867,2250L1867,2298"></path>
		<path id="path2455_8" class="st0 QZLtImgx_45" d="M1819,2250L1819,2298"></path>
		<path id="path2455_9" class="st0 QZLtImgx_46" d="M1771,2250L1771,2346"></path>
		<path id="path2455_10" class="st0 QZLtImgx_47" d="M2298,2250L2298,2298"></path>
		<path id="path2455_11" class="st0 QZLtImgx_48" d="M2346,2250L2346,2298"></path>
		<path id="path2455_12" class="st0 QZLtImgx_49" d="M2394,2250L2394,2298"></path>
		<path id="path2455_13" class="st0 QZLtImgx_50" d="M2442,2250L2442,2298"></path>
		<path id="path2455_14" class="st0 QZLtImgx_51" d="M2490,2250L2490,2346"></path>
		<path id="path2455_15" class="st0 QZLtImgx_52" d="M2537,2250L2537,2298"></path>
		<path id="path2455_16" class="st0 QZLtImgx_53" d="M2585,2250L2585,2298"></path>
		<path id="path2455_17" class="st0 QZLtImgx_54" d="M2633,2250L2633,2298"></path>
		<path id="path2455_18" class="st0 QZLtImgx_55" d="M2681,2250L2681,2298"></path>
		<path id="path2455_19" class="st0 QZLtImgx_56" d="M2729,2250L2729,2346"></path>
		<path id="path2479_20" class="st0 QZLtImgx_57" d="M2237,2638L2250,2596L2263,2638"></path>
		<path id="path2479_21" class="st0 QZLtImgx_58" d="M2237,2840L2250,2798L2263,2840"></path>
		<path id="path2435_22" class="st0 QZLtImgx_59" d="M2825,2250L3777,2250"></path>
	</g>
</g>
<style data-made-with="vivus-instant">.QZLtImgx_0{stroke-dasharray:952 954;stroke-dashoffset:953;animation:QZLtImgx_draw 400ms linear 0ms forwards;}.QZLtImgx_1{stroke-dasharray:48 50;stroke-dashoffset:49;animation:QZLtImgx_draw 400ms linear 3ms forwards;}.QZLtImgx_2{stroke-dasharray:113 115;stroke-dashoffset:114;animation:QZLtImgx_draw 400ms linear 6ms forwards;}.QZLtImgx_3{stroke-dasharray:88 90;stroke-dashoffset:89;animation:QZLtImgx_draw 400ms linear 10ms forwards;}.QZLtImgx_4{stroke-dasharray:957 959;stroke-dashoffset:958;animation:QZLtImgx_draw 400ms linear 13ms forwards;}.QZLtImgx_5{stroke-dasharray:1268 1270;stroke-dashoffset:1269;animation:QZLtImgx_draw 400ms linear 16ms forwards;}.QZLtImgx_6{stroke-dasharray:49 51;stroke-dashoffset:50;animation:QZLtImgx_draw 400ms linear 20ms forwards;}.QZLtImgx_7{stroke-dasharray:88 90;stroke-dashoffset:89;animation:QZLtImgx_draw 400ms linear 23ms forwards;}.QZLtImgx_8{stroke-dasharray:89 91;stroke-dashoffset:90;animation:QZLtImgx_draw 400ms linear 27ms forwards;}.QZLtImgx_9{stroke-dasharray:41 43;stroke-dashoffset:42;animation:QZLtImgx_draw 400ms linear 30ms forwards;}.QZLtImgx_10{stroke-dasharray:92 94;stroke-dashoffset:93;animation:QZLtImgx_draw 400ms linear 33ms forwards;}.QZLtImgx_11{stroke-dasharray:86 88;stroke-dashoffset:87;animation:QZLtImgx_draw 400ms linear 37ms forwards;}.QZLtImgx_12{stroke-dasharray:93 95;stroke-dashoffset:94;animation:QZLtImgx_draw 400ms linear 40ms forwards;}.QZLtImgx_13{stroke-dasharray:92 94;stroke-dashoffset:93;animation:QZLtImgx_draw 400ms linear 44ms forwards;}.QZLtImgx_14{stroke-dasharray:93 95;stroke-dashoffset:94;animation:QZLtImgx_draw 400ms linear 47ms forwards;}.QZLtImgx_15{stroke-dasharray:41 43;stroke-dashoffset:42;animation:QZLtImgx_draw 400ms linear 50ms forwards;}.QZLtImgx_16{stroke-dasharray:88 90;stroke-dashoffset:89;animation:QZLtImgx_draw 400ms linear 54ms forwards;}.QZLtImgx_17{stroke-dasharray:44 46;stroke-dashoffset:45;animation:QZLtImgx_draw 400ms linear 57ms forwards;}.QZLtImgx_18{stroke-dasharray:97 99;stroke-dashoffset:98;animation:QZLtImgx_draw 400ms linear 61ms forwards;}.QZLtImgx_19{stroke-dasharray:88 90;stroke-dashoffset:89;animation:QZLtImgx_draw 400ms linear 64ms forwards;}.QZLtImgx_20{stroke-dasharray:99 101;stroke-dashoffset:100;animation:QZLtImgx_draw 400ms linear 67ms forwards;}.QZLtImgx_21{stroke-dasharray:42 44;stroke-dashoffset:43;animation:QZLtImgx_draw 400ms linear 71ms forwards;}.QZLtImgx_22{stroke-dasharray:67 69;stroke-dashoffset:68;animation:QZLtImgx_draw 400ms linear 74ms forwards;}.QZLtImgx_23{stroke-dasharray:88 90;stroke-dashoffset:89;animation:QZLtImgx_draw 400ms linear 77ms forwards;}.QZLtImgx_24{stroke-dasharray:98 100;stroke-dashoffset:99;animation:QZLtImgx_draw 400ms linear 81ms forwards;}.QZLtImgx_25{stroke-dasharray:271 273;stroke-dashoffset:272;animation:QZLtImgx_draw 400ms linear 84ms forwards;}.QZLtImgx_26{stroke-dasharray:100 102;stroke-dashoffset:101;animation:QZLtImgx_draw 400ms linear 88ms forwards;}.QZLtImgx_27{stroke-dasharray:270 272;stroke-dashoffset:271;animation:QZLtImgx_draw 400ms linear 91ms forwards;}.QZLtImgx_28{stroke-dasharray:223 225;stroke-dashoffset:224;animation:QZLtImgx_draw 400ms linear 94ms forwards;}.QZLtImgx_29{stroke-dasharray:58 60;stroke-dashoffset:59;animation:QZLtImgx_draw 400ms linear 98ms forwards;}.QZLtImgx_30{stroke-dasharray:139 141;stroke-dashoffset:140;animation:QZLtImgx_draw 400ms linear 101ms forwards;}.QZLtImgx_31{stroke-dasharray:270 272;stroke-dashoffset:271;animation:QZLtImgx_draw 400ms linear 105ms forwards;}.QZLtImgx_32{stroke-dasharray:320 322;stroke-dashoffset:321;animation:QZLtImgx_draw 400ms linear 108ms forwards;}.QZLtImgx_33{stroke-dasharray:100 102;stroke-dashoffset:101;animation:QZLtImgx_draw 400ms linear 111ms forwards;}.QZLtImgx_34{stroke-dasharray:271 273;stroke-dashoffset:272;animation:QZLtImgx_draw 400ms linear 115ms forwards;}.QZLtImgx_35{stroke-dasharray:100 102;stroke-dashoffset:101;animation:QZLtImgx_draw 400ms linear 118ms forwards;}.QZLtImgx_36{stroke-dasharray:26 28;stroke-dashoffset:27;animation:QZLtImgx_draw 400ms linear 122ms forwards;}.QZLtImgx_37{stroke-dasharray:147 149;stroke-dashoffset:148;animation:QZLtImgx_draw 400ms linear 125ms forwards;}.QZLtImgx_38{stroke-dasharray:48 50;stroke-dashoffset:49;animation:QZLtImgx_draw 400ms linear 128ms forwards;}.QZLtImgx_39{stroke-dasharray:48 50;stroke-dashoffset:49;animation:QZLtImgx_draw 400ms linear 132ms forwards;}.QZLtImgx_40{stroke-dasharray:48 50;stroke-dashoffset:49;animation:QZLtImgx_draw 400ms linear 135ms forwards;}.QZLtImgx_41{stroke-dasharray:96 98;stroke-dashoffset:97;animation:QZLtImgx_draw 400ms linear 138ms forwards;}.QZLtImgx_42{stroke-dasharray:48 50;stroke-dashoffset:49;animation:QZLtImgx_draw 400ms linear 142ms forwards;}.QZLtImgx_43{stroke-dasharray:48 50;stroke-dashoffset:49;animation:QZLtImgx_draw 400ms linear 145ms forwards;}.QZLtImgx_44{stroke-dasharray:48 50;stroke-dashoffset:49;animation:QZLtImgx_draw 400ms linear 149ms forwards;}.QZLtImgx_45{stroke-dasharray:48 50;stroke-dashoffset:49;animation:QZLtImgx_draw 400ms linear 152ms forwards;}.QZLtImgx_46{stroke-dasharray:96 98;stroke-dashoffset:97;animation:QZLtImgx_draw 400ms linear 155ms forwards;}.QZLtImgx_47{stroke-dasharray:48 50;stroke-dashoffset:49;animation:QZLtImgx_draw 400ms linear 159ms forwards;}.QZLtImgx_48{stroke-dasharray:48 50;stroke-dashoffset:49;animation:QZLtImgx_draw 400ms linear 162ms forwards;}.QZLtImgx_49{stroke-dasharray:48 50;stroke-dashoffset:49;animation:QZLtImgx_draw 400ms linear 166ms forwards;}.QZLtImgx_50{stroke-dasharray:48 50;stroke-dashoffset:49;animation:QZLtImgx_draw 400ms linear 169ms forwards;}.QZLtImgx_51{stroke-dasharray:96 98;stroke-dashoffset:97;animation:QZLtImgx_draw 400ms linear 172ms forwards;}.QZLtImgx_52{stroke-dasharray:48 50;stroke-dashoffset:49;animation:QZLtImgx_draw 400ms linear 176ms forwards;}.QZLtImgx_53{stroke-dasharray:48 50;stroke-dashoffset:49;animation:QZLtImgx_draw 400ms linear 179ms forwards;}.QZLtImgx_54{stroke-dasharray:48 50;stroke-dashoffset:49;animation:QZLtImgx_draw 400ms linear 183ms forwards;}.QZLtImgx_55{stroke-dasharray:48 50;stroke-dashoffset:49;animation:QZLtImgx_draw 400ms linear 186ms forwards;}.QZLtImgx_56{stroke-dasharray:96 98;stroke-dashoffset:97;animation:QZLtImgx_draw 400ms linear 189ms forwards;}.QZLtImgx_57{stroke-dasharray:88 90;stroke-dashoffset:89;animation:QZLtImgx_draw 400ms linear 193ms forwards;}.QZLtImgx_58{stroke-dasharray:88 90;stroke-dashoffset:89;animation:QZLtImgx_draw 400ms linear 196ms forwards;}.QZLtImgx_59{stroke-dasharray:952 954;stroke-dashoffset:953;animation:QZLtImgx_draw 400ms linear 200ms forwards;}@keyframes QZLtImgx_draw{100%{stroke-dashoffset:0;}}@keyframes QZLtImgx_fade{0%{stroke-opacity:1;}91.66666666666667%{stroke-opacity:1;}100%{stroke-opacity:0;}}</style></svg>
