<?xml version="1.0" encoding="utf-8"?>
<!-- Generator: Adobe Illustrator 23.0.1, SVG Export Plug-In . SVG Version: 6.00 Build 0)  -->
<svg version="1.1" id="Layer_1" xmlns="http://www.w3.org/2000/svg" xmlns:xlink="http://www.w3.org/1999/xlink" x="0px" y="0px"
	 viewBox="0 0 128 128" style="enable-background:new 0 0 128 128;" xml:space="preserve">
<style type="text/css">
	.st0{fill-rule:evenodd;clip-rule:evenodd;fill:#637079;}
</style>
<path class="st0" d="M120.8,29.2c0,0.4-0.1,0.8-0.4,1.1c-0.3,0.3-0.5,0.5-0.8,0.5c-2.5,0.2-4.5,1-6.1,2.4c-1.6,1.4-3.2,4-4.9,7.8
	L82.8,99.2c-0.2,0.5-0.6,0.8-1.4,0.8c-0.6,0-1.1-0.3-1.4-0.8L65.5,68.9L48.8,99.2c-0.3,0.5-0.8,0.8-1.4,0.8c-0.7,0-1.2-0.3-1.5-0.8
	L20.6,41c-1.6-3.6-3.2-6.1-5-7.6c-1.8-1.4-4.2-2.3-7.3-2.7c-0.3,0-0.5-0.1-0.8-0.4c-0.2-0.3-0.4-0.6-0.4-1c0-1,0.3-1.4,0.8-1.4
	c2.3,0,4.6,0.1,7.1,0.3c2.3,0.2,4.4,0.3,6.5,0.3c2.1,0,4.5-0.1,7.3-0.3c2.9-0.2,5.5-0.3,7.8-0.3c0.5,0,0.8,0.5,0.8,1.4
	c0,0.9-0.2,1.4-0.5,1.4c-2.3,0.2-4,0.8-5.3,1.7c-1.3,1-1.9,2.3-1.9,3.9c0,0.8,0.3,1.8,0.8,3l21,47.3l11.9-22.5L52.2,41
	c-2-4.1-3.6-6.8-4.9-8c-1.3-1.2-3.2-1.9-5.8-2.2c-0.2,0-0.5-0.1-0.7-0.4c-0.2-0.3-0.3-0.6-0.3-1c0-1,0.2-1.4,0.7-1.4
	c2.3,0,4.3,0.1,6.2,0.3c1.8,0.2,3.8,0.3,5.8,0.3c2,0,4.2-0.1,6.4-0.3c2.3-0.2,4.6-0.3,6.9-0.3c0.5,0,0.8,0.5,0.8,1.4
	c0,0.9-0.2,1.4-0.5,1.4c-4.5,0.3-6.8,1.6-6.8,3.9c0,1,0.5,2.6,1.6,4.7l7.3,14.9l7.3-13.6c1-1.9,1.5-3.5,1.5-4.9c0-3.1-2.3-4.8-6.8-5
	c-0.4,0-0.6-0.5-0.6-1.4c0-0.3,0.1-0.7,0.3-1c0.2-0.3,0.4-0.5,0.6-0.5c1.6,0,3.6,0.1,6,0.3c2.3,0.2,4.1,0.3,5.6,0.3
	c1,0,2.6-0.1,4.6-0.3c2.6-0.2,4.7-0.4,6.4-0.4c0.4,0,0.6,0.4,0.6,1.2c0,1.1-0.4,1.6-1.1,1.6c-2.6,0.3-4.8,1-6.3,2.2
	c-1.6,1.2-3.6,3.9-6,8l-9.7,18l13.2,26.8l19.4-45.2c0.7-1.7,1-3.2,1-4.6c0-3.3-2.3-5.1-6.8-5.3c-0.4,0-0.6-0.5-0.6-1.4
	c0-1,0.3-1.4,0.9-1.4c1.7,0,3.6,0.1,5.9,0.3c2.1,0.2,3.8,0.3,5.3,0.3c1.5,0,3.2-0.1,5.2-0.3c2-0.2,3.8-0.3,5.5-0.3
	C120.6,28,120.8,28.4,120.8,29.2z"/>
</svg>
